<svg id="svg" xmlns="http://www.w3.org/2000/svg" xmlns:xlink="http://www.w3.org/1999/xlink" width="400" height="400" viewBox="0, 0, 400,400">
    <g id="svgg">
        <path id="path0" d="M186.875 118.554 L 79.000 225.856 119.216 225.928 L 159.431 226.000 128.884 306.500 C 112.082 350.775,98.692 387.357,99.127 387.793 C 100.044 388.711,111.898 377.381,231.681 261.093 L 320.361 175.000 280.594 174.000 L 240.827 173.000 268.457 94.130 C 283.653 50.752,295.786 14.358,295.419 13.256 C 295.051 12.153,246.207 59.537,186.875 118.554 M173.000 29.429 C 33.672 48.697,-22.602 230.625,81.313 325.844 C 97.611 340.779,95.979 341.002,102.703 322.921 L 108.310 307.842 96.655 295.260 C 11.527 203.368,86.527 45.327,208.718 59.121 L 220.436 60.443 232.218 48.784 C 238.698 42.372,244.000 36.104,244.000 34.856 C 244.000 29.915,196.008 26.247,173.000 29.429 M295.456 75.352 L 290.043 90.402 302.959 104.554 C 388.473 198.249,313.129 355.291,189.547 340.947 L 177.798 339.584 165.399 351.292 C 150.424 365.432,150.302 366.345,163.000 369.294 C 257.173 391.162,354.899 323.451,370.198 225.735 C 379.754 164.699,348.375 88.087,302.935 61.509 C 301.741 60.811,298.584 66.656,295.456 75.352 " stroke="none" fill="#000000" fill-rule="evenodd">
        </path>
    </g>
</svg>